<?xml version="1.0" encoding="UTF-8" standalone="no"?>
<svg
   version="1.1"
   x="0px"
   y="0px"
   viewBox="0 0 100 125"
   enable-background="new 0 0 100 100"
   xml:space="preserve"
   id="svg8"
   sodipodi:docname="evaluation2.svg"
   inkscape:version="1.1.1 (3bf5ae0d25, 2021-09-20)"
   xmlns:inkscape="http://www.inkscape.org/namespaces/inkscape"
   xmlns:sodipodi="http://sodipodi.sourceforge.net/DTD/sodipodi-0.dtd"
   xmlns:xlink="http://www.w3.org/1999/xlink"
   xmlns="http://www.w3.org/2000/svg"
   xmlns:svg="http://www.w3.org/2000/svg"><defs
     id="defs12"><linearGradient
       id="linearGradient2777"
       inkscape:swatch="solid"><stop
         style="stop-color:#26ca15;stop-opacity:1;"
         offset="0"
         id="stop2775" /></linearGradient><linearGradient
       inkscape:collect="always"
       xlink:href="#linearGradient2777"
       id="linearGradient2779"
       x1="2.623147"
       y1="49.9995"
       x2="97.376099"
       y2="49.9995"
       gradientUnits="userSpaceOnUse"
       gradientTransform="translate(-26.637972,3.8536553)" /></defs><sodipodi:namedview
     id="namedview10"
     pagecolor="#505050"
     bordercolor="#eeeeee"
     borderopacity="1"
     inkscape:pageshadow="0"
     inkscape:pageopacity="0"
     inkscape:pagecheckerboard="0"
     showgrid="false"
     inkscape:zoom="6.592"
     inkscape:cx="49.98483"
     inkscape:cy="53.777306"
     inkscape:window-width="1920"
     inkscape:window-height="1013"
     inkscape:window-x="-9"
     inkscape:window-y="-9"
     inkscape:window-maximized="1"
     inkscape:current-layer="svg8" /><path
     d="m 69.957028,47.251655 -8.835,12.973 c -0.705,1.035 -1.808,1.729 -3.046,1.916 -0.224,0.035 -0.449,0.051 -0.673,0.051 -1.012,0 -2.002,-0.342 -2.804,-0.979 l -12.129,-9.663 c -1.944,-1.549 -2.266,-4.381 -0.716,-6.324 1.548,-1.943 4.38,-2.264 6.322,-0.715 l 3.258,2.595 c -3.04,-12.499 -14.322,-21.81 -27.743,-21.81 -8.744,0 -16.89,3.928 -22.349,10.773 -1.549,1.943 -4.38,2.266 -6.324,0.714 -1.943,-1.549 -2.263,-4.381 -0.713,-6.323 7.176,-9.002 17.887,-14.164 29.386,-14.164 17.86,0 32.839,12.537 36.624,29.271 l 2.303,-3.383 c 1.398,-2.053 4.201,-2.582 6.252,-1.187 2.055,1.4 2.586,4.199 1.187,6.255 z m -16.164,20.784 c -2.084,-1.352 -4.87,-0.758 -6.224,1.328 -5.296,8.17 -14.26,13.047 -23.978,13.047 -14.633,0 -26.725,-11.062 -28.363,-25.266 l 3.295,3.246 c 1.771,1.742 4.619,1.723 6.364,-0.049 1.744,-1.771 1.722,-4.619 -0.048,-6.364 l -11.045,-10.878 c -0.892,-0.879 -2.098,-1.346 -3.359,-1.289 -1.25,0.056 -2.421,0.63 -3.23,1.584 l -10.152,11.973 c -1.607,1.896 -1.374,4.736 0.522,6.344 0.846,0.717 1.879,1.066 2.908,1.066 1.276,0 2.544,-0.539 3.435,-1.59 l 2.397,-2.826 c 2.235,18.59 18.095,33.049 37.278,33.049 12.779,0 24.566,-6.41 31.529,-17.148 1.351,-2.087 0.758,-4.874 -1.329,-6.227 z m -29.967,-28.344 c -2.485,0 -4.5,2.015 -4.5,4.5 v 5.162 h -5.162 c -2.485,0 -4.5,2.015 -4.5,4.5 0,2.485 2.015,4.5 4.5,4.5 h 5.162 v 5.16 c 0,2.484 2.015,4.5 4.5,4.5 2.485,0 4.5,-2.016 4.5,-4.5 v -5.16 h 5.159 c 2.485,0 4.5,-2.016 4.5,-4.5 0,-2.485 -2.015,-4.5 -4.5,-4.5 h -5.159 v -5.161 c 0,-2.486 -2.015,-4.501 -4.5,-4.501 z"
     id="path2"
     style="fill:url(#linearGradient2779);fill-opacity:1" /></svg>
